<?xml version="1.0" encoding="UTF-8"?>
<svg width="340px" height="66px" viewBox="0 0 340 66" version="1.1" xmlns="http://www.w3.org/2000/svg" xmlns:xlink="http://www.w3.org/1999/xlink">
    <!-- Generator: Sketch 48.1 (47250) - http://www.bohemiancoding.com/sketch -->
    <title>Dark</title>
    <desc>Created with Sketch.</desc>
    <defs></defs>
    <g id="Artboard-Copy-10" stroke="none" stroke-width="1" fill="none" fill-rule="evenodd" transform="translate(-232.000000, -370.000000)">
        <g id="Dark" transform="translate(232.000000, 373.000000)">
            <path d="M32.9909312,50.027027 L0,50.027027 L0,3 L32.9909312,3 L32.9909312,11.813161 L9.92523778,11.813161 L9.92523778,21.6839013 L32.5016589,21.6839013 L32.5016589,30.4970623 L9.92523778,30.4970623 L9.92523778,41.213866 L32.9909312,41.213866 L32.9909312,50.027027 Z M74.3594022,50.027027 L64.4341644,50.027027 L56.7455999,38.5346651 L48.9871394,50.027027 L39.1317976,50.027027 L51.1539166,32.5417156 L39.830758,15.972973 L49.7559958,15.972973 L74.3594022,50.027027 Z M59.7182072,22.2730081 L65.0332733,15.9401892 L74.888615,15.9401892 L64.5552935,28.9911549 L59.7182072,22.2730081 Z M101.049705,50.8730905 C96.8559211,50.8730905 93.3844525,49.1339774 90.6351945,45.6556992 L90.6351945,63 L81.7583973,63 L81.7583973,15.972973 L90.6351945,15.972973 L90.6351945,25.0525162 C91.8434673,17.0888918 96.762726,15.1269095 101.049705,15.1269095 C105.476476,15.1269095 109.076086,16.7132626 111.848643,19.8860165 C114.6212,23.0587703 116.007457,27.4183036 116.007457,32.9647474 C116.007457,38.5111911 114.6212,42.8824752 111.848643,46.0787309 C109.076086,49.2749866 105.476476,50.8730905 101.049705,50.8730905 Z M98.2538629,42.9059929 C100.816731,42.9059929 102.890292,41.9894334 104.474611,40.1562867 C106.058929,38.3231401 106.851076,35.9259843 106.851076,32.9647474 C106.851076,30.0505142 106.058929,27.6768599 104.474611,25.8437133 C102.890292,24.0105666 100.816731,23.0940071 98.2538629,23.0940071 C96.8093375,23.0940071 95.3648338,23.4582807 93.9203084,24.186839 C92.475783,24.9153973 91.380756,25.8437076 90.6351945,26.9717979 L90.6351945,38.9576968 C91.380756,40.0387833 92.4874322,40.9670937 93.9552564,41.7426557 C95.4230806,42.5182177 96.8559351,42.9059929 98.2538629,42.9059929 Z M141.160047,50.8730905 C135.754726,50.8730905 131.432864,49.1457282 128.194331,45.6909518 C124.955798,42.2361754 123.336556,37.9941497 123.336556,32.9647474 C123.336556,27.935345 124.955798,23.70507 128.194331,20.2737955 C131.432864,16.842521 135.754726,15.1269095 141.160047,15.1269095 C146.565368,15.1269095 150.898879,16.842521 154.16071,20.2737955 C157.422542,23.70507 159.053433,27.935345 159.053433,32.9647474 C159.053433,37.9941497 157.422542,42.2361754 154.16071,45.6909518 C150.898879,49.1457282 146.565368,50.8730905 141.160047,50.8730905 Z M141.160047,42.9059929 C143.862707,42.9059929 145.982866,41.9541811 147.520586,40.0505288 C149.058307,38.1468765 149.827156,35.784973 149.827156,32.9647474 C149.827156,30.1915255 149.058307,27.8531235 147.520586,25.9494712 C145.982866,24.0458189 143.862707,23.0940071 141.160047,23.0940071 C138.503984,23.0940071 136.407124,24.0458189 134.869403,25.9494712 C133.331683,27.8531235 132.562834,30.1915255 132.562834,32.9647474 C132.562834,35.784973 133.331683,38.1468765 134.869403,40.0505288 C136.407124,41.9541811 138.503984,42.9059929 141.160047,42.9059929 Z M200.421904,50.027027 L191.475211,50.027027 L191.475211,29.439483 C191.475211,25.2091445 189.401649,23.0940071 185.254463,23.0940071 C182.179022,23.0940071 179.616193,24.4100926 177.565899,27.0423032 L177.565899,50.027027 L168.689102,50.027027 L168.689102,15.972973 L177.565899,15.972973 L177.565899,24.1968782 C178.287011,18.0176263 180.419977,17.6533541 182.49357,16.6427732 C184.567163,15.6321924 186.86206,15.1269095 189.37833,15.1269095 C193.012942,15.1269095 195.762159,16.0904722 197.626063,18.0176263 C199.489966,19.9447805 200.421904,22.6004531 200.421904,25.9847239 L200.421904,50.027027 Z M228.020855,50.8730905 C222.801925,50.8730905 218.491712,49.2279835 215.090088,45.9377203 C211.688463,42.6474571 209.987677,38.323176 209.987677,32.9647474 C209.987677,27.9823488 211.641866,23.7638246 214.950295,20.3090482 C218.258725,16.8542718 222.429147,15.1269095 227.461687,15.1269095 C232.494227,15.1269095 236.571455,16.8542718 239.693494,20.3090482 C242.815533,23.7638246 244.376529,28.2643671 244.376529,33.8108108 L244.376529,35.9259694 L219.28385,35.9259694 C219.610033,38.1351462 220.623516,39.9565146 222.324328,41.3901293 C224.02514,42.8237439 226.250142,43.5405405 228.9994,43.5405405 C230.53712,43.5405405 232.156362,43.2467714 233.857174,42.6592244 C235.557987,42.0716774 236.920946,41.2608747 237.946093,40.226792 L241.930167,46.1492362 C238.528543,49.2984881 233.892152,50.8730905 228.020855,50.8730905 Z M235.849212,29.7215041 C235.662821,27.7943499 234.882323,26.10224 233.507694,24.6451234 C232.133065,23.1880068 230.11775,22.4594595 227.461687,22.4594595 C224.898819,22.4594595 222.9301,23.1762561 221.555471,24.6098707 C220.180842,26.0434854 219.400344,27.7473462 219.213954,29.7215041 L235.849212,29.7215041 Z M285.535311,50.027027 L276.588618,50.027027 L276.588618,29.439483 C276.588618,25.2091445 274.515056,23.0940071 270.367871,23.0940071 C267.292429,23.0940071 264.7296,24.4100926 262.679306,27.0423032 L262.679306,50.027027 L253.802509,50.027027 L253.802509,15.972973 L262.679306,15.972973 L262.679306,24.1750333 C263.181783,18.5267462 265.533384,17.6533541 267.606977,16.6427732 C269.68057,15.6321924 271.975467,15.1269095 274.491737,15.1269095 C278.126349,15.1269095 280.875566,16.0904722 282.73947,18.0176263 C284.603374,19.9447805 285.535311,22.6004531 285.535311,25.9847239 L285.535311,50.027027 Z M308.59102,50.8730905 C302.253747,50.8730905 299.085158,47.7473873 299.085158,41.4958872 L299.085158,23.7990599 L293.493475,23.7990599 L293.493475,15.972973 L299.085158,15.972973 L299.085158,6.66627497 L307.961955,6.66627497 L307.961955,15.972973 L314.811767,15.972973 L314.811767,23.7990599 L307.961955,23.7990599 L307.961955,39.0987074 C307.961955,40.2267976 308.229887,41.1433572 308.76576,41.8484136 C309.301632,42.55347 310.058832,42.9059929 311.037381,42.9059929 C312.481907,42.9059929 313.507038,42.55347 314.112807,41.8484136 L316,48.6874266 C314.369084,50.1445431 311.899449,50.8730905 308.59102,50.8730905 Z" id="Exponent" fill="#000000"></path>
            <polyline id="Line-Copy-2" stroke="#000000" stroke-width="3" points="323 8 331 0 339 8"></polyline>
        </g>
    </g>
</svg>